Fly_normalized_Motion_pl05
version=1
nRows=12
nColumns=43
inDegrees=yes
endheader
time		pelvis_tilt		pelvis_list		pelvis_rotation		pelvis_tx		pelvis_ty		pelvis_tz		hip_flexion_r		hip_adduction_r		hip_rotation_r		knee_angle_r		ankle_angle_r		subtalar_angle_r		mtp_angle_r		hip_flexion_l		hip_adduction_l		hip_rotation_l		knee_angle_l		ankle_angle_l		subtalar_angle_l		mtp_angle_l		lumbar_extension		lumbar_bending		lumbar_rotation		neck_flexion		neck_lateral_bending		neck_rotation		arm_flex_r		arm_add_r		arm_rot_r		elbow_flex_r		pro_sup_r		wrist_flex_r		wrist_dev_r		hand_finger_flex_r		arm_flex_l		arm_add_l		arm_rot_l		elbow_flex_l		pro_sup_l		wrist_flex_l		wrist_dev_l		hand_finger_flex_l		
3.209495		2.481710		-4.165967		96.047601		-0.017213		1.531245		0.921699		40.035594		-6.846289		-13.882003		-48.318324		-26.072063		2.713945		20.738906		34.253588		-7.129637		-7.901758		-51.423942		-27.138993		-9.236000		23.451041		-34.942197		5.035657		5.567495		-5.333035		12.673837		-6.713290		4.373994		-26.596078		-15.690805		53.337049		121.891525		2.794649		3.001012		-30.518758		-36.622829		-57.775536		-17.859819		76.037348		131.644909		-4.781563		-5.999157		-16.867452		
3.213485		2.473535		-4.077727		96.037986		-0.017810		1.523104		0.913420		39.417872		-6.795446		-14.246842		-46.754920		-26.235149		2.539774		20.652723		33.699015		-6.943749		-8.347552		-49.628379		-27.523662		-8.572980		23.289200		-34.729710		5.068272		6.049434		-5.823128		12.545121		-7.485869		1.853921		-26.525287		-16.564245		53.387939		121.896836		2.231706		3.071791		-30.594355		-39.802637		-57.412963		-19.272710		75.837447		131.664219		-5.228769		-6.413200		-16.768065		
3.217475		2.423649		-3.942949		95.969538		-0.018567		1.514909		0.905060		38.718593		-6.781834		-14.633552		-45.151715		-26.319501		2.362835		20.550573		33.040877		-6.752394		-8.917195		-47.812273		-27.805896		-7.892522		23.115529		-34.596051		5.071256		6.453957		-6.321967		12.438124		-7.929388		-0.551045		-26.424575		-17.335927		53.431281		121.971212		1.787073		3.088364		-30.607672		-43.051938		-56.827292		-20.828660		75.636953		131.848696		-5.704052		-6.752028		-16.593256		
3.221465		2.355846		-3.634179		95.888664		-0.018959		1.506799		0.896663		37.828366		-6.694131		-14.917787		-43.548394		-26.371685		2.250949		20.393688		32.164528		-6.603766		-9.536575		-45.957913		-28.159840		-6.894376		22.901034		-34.655034		4.982691		6.654887		-6.763684		12.386750		-8.378336		-2.558686		-26.128696		-17.925873		53.248295		122.191089		1.511519		3.143910		-30.526784		-46.742096		-56.045068		-22.887798		75.545411		132.492040		-6.345155		-7.221332		-16.321564		
3.225455		2.333989		-3.510553		95.876399		-0.019706		1.498084		0.888274		37.160631		-6.681636		-15.351235		-42.019752		-26.390469		2.216807		20.302960		31.547956		-6.400362		-10.022890		-44.215352		-28.489164		-6.199241		22.801593		-34.419831		5.042467		6.999960		-7.589691		12.209515		-8.713302		-4.883884		-25.859187		-18.738842		53.239819		122.054164		1.223483		3.167626		-30.503091		-49.809735		-55.403085		-24.189904		75.279278		133.026144		-6.778395		-7.591350		-16.294678		
3.229444		2.276466		-3.300483		95.829894		-0.020448		1.489682		0.879976		36.352136		-6.600121		-15.593485		-40.369314		-26.313418		2.121001		20.161522		30.731195		-6.138280		-10.469347		-42.269390		-28.463610		-5.352613		22.663371		-34.375872		5.050583		7.096497		-7.856957		12.217878		-8.850843		-6.739686		-25.652132		-19.067943		53.003568		122.263579		1.186120		3.203206		-30.369539		-53.013186		-54.436031		-25.738487		74.980343		133.865117		-7.204191		-7.981479		-16.231833		
3.233434		2.240281		-3.064886		95.900239		-0.021030		1.480539		0.871567		35.590327		-6.632903		-16.126264		-38.962905		-26.413130		2.124929		20.057410		30.095883		-5.934148		-10.882194		-40.728888		-28.703156		-4.630374		22.574231		-34.217752		5.102435		7.289518		-8.884771		11.999570		-9.016501		-8.979226		-25.155063		-19.918356		53.035415		121.975616		0.942735		3.138993		-30.280018		-56.178501		-53.656753		-27.180069		74.801773		134.541546		-7.642036		-8.419405		-16.362782		
3.237424		2.207699		-2.877417		95.988721		-0.021602		1.471546		0.863309		34.824741		-6.602414		-16.519191		-37.409315		-26.420811		2.127996		19.930965		29.420057		-5.678416		-11.216995		-38.975802		-28.650754		-3.954200		22.470709		-34.076329		5.163172		7.351358		-9.460651		11.898047		-8.966464		-10.978074		-24.787425		-20.329159		52.938998		121.900748		0.890131		3.030903		-30.125725		-59.133232		-52.679457		-28.560040		74.503261		135.215829		-7.949361		-8.755361		-16.475707		
3.241414		2.239891		-2.726004		96.036444		-0.022411		1.461958		0.855012		34.212776		-6.588345		-17.025118		-36.091058		-26.618225		2.226206		19.850440		28.912458		-5.473913		-11.477233		-37.495502		-28.769851		-3.391770		22.408812		-33.792113		5.322513		7.484385		-10.387952		11.653353		-9.061960		-13.130134		-24.274823		-21.028428		53.024723		121.556202		0.685352		2.849854		-30.045926		-62.092075		-51.865266		-29.589082		74.207220		135.583052		-8.258782		-9.104617		-16.591266		
3.245404		2.297721		-2.718252		96.120957		-0.023358		1.452381		0.846799		33.693726		-6.506343		-17.375044		-34.628875		-26.674863		2.313600		19.795003		28.456420		-5.224848		-11.685613		-35.780771		-28.658197		-2.940320		22.371030		-33.405896		5.536820		7.586982		-10.902906		11.531815		-9.093730		-15.203354		-23.931652		-21.385245		53.029446		121.386378		0.627281		2.670269		-29.965234		-64.606666		-50.983157		-30.281468		73.719716		135.782084		-8.449925		-9.294908		-16.628587		
3.249394		2.317125		-2.301971		96.306887		-0.023934		1.442988		0.838326		32.714757		-6.507047		-18.032594		-33.245609		-27.020041		2.517139		19.657208		27.659600		-5.069183		-11.978537		-34.310490		-28.599694		-1.889006		22.284052		-33.401292		5.644931		7.444804		-11.889323		11.482169		-8.982214		-17.050871		-23.350249		-21.762898		52.912935		121.091832		0.562305		2.257655		-29.730728		-67.667524		-49.697922		-31.784964		73.597514		136.049402		-8.921552		-9.686457		-16.600364		
3.253384		2.374523		-2.338291		96.322944		-0.024778		1.432853		0.830078		32.318822		-6.413184		-18.310704		-31.919757		-27.110019		2.654949		19.618337		27.292900		-4.841182		-12.113020		-32.728596		-28.499465		-1.600508		22.262188		-32.969316		5.819260		7.597002		-12.440523		11.254939		-8.992671		-19.209661		-22.881047		-22.194230		53.127359		120.815272		0.359836		2.049455		-29.719147		-69.957994		-48.667504		-32.372573		73.107270		136.072005		-9.109738		-9.842821		-16.561611		
